<svg width="12" height="14" viewBox="0 0 12 14" fill="none" xmlns="http://www.w3.org/2000/svg">
<path fill-rule="evenodd" clip-rule="evenodd" d="M6.96603 12.2822C5.88002 12.2822 4.81351 11.921 4.20151 11.1426L3.9855 12.0596L0 14L0.430514 12.0596L3.33299 0H6.88649L5.86049 4.25041C6.68849 3.41879 7.45952 3.11079 8.4465 3.11079C10.578 3.11079 12 4.39601 12 6.74659C12 9.1714 10.362 12.2822 6.96603 12.2822ZM8.32799 7.434C8.32799 8.55539 7.45952 9.4066 6.333 9.4066C5.70151 9.4066 5.13002 9.18958 4.755 8.80878L5.307 6.58419C5.721 6.20482 6.195 5.98781 6.74849 5.98781C7.59752 5.98781 8.32799 6.566 8.32799 7.434Z" fill="#01ADD8"/>
</svg>
