<svg width="12" height="13" viewBox="0 0 12 13" fill="none" xmlns="http://www.w3.org/2000/svg">
<path d="M0.0188235 6.9082H11.6141L11.6329 6.94585L11.5953 7.49173L11.5388 7.90585L11.4824 8.07526L11.3882 8.13173L10.88 8.24467L10.8047 8.31997L10.56 8.97879L10.4094 9.29879L10.3153 9.50585L10.3341 9.58114L10.5035 9.82585L10.6165 9.99526L10.6353 10.0894L10.5788 10.24L10.4659 10.4094L10.2212 10.7106L10.0141 10.9364L9.92 11.0494L9.76941 11.1811L9.63765 11.3129L9.43059 11.4823L9.18588 11.6706L9.09177 11.727L8.94118 11.7459L8.80941 11.6894L8.56471 11.5011L8.48941 11.4635H8.32L8.03765 11.6141L7.54824 11.8211L7.19059 11.9529L7.13412 12.047L7.04 12.4988L6.96471 12.6117L6.79529 12.6682L6.45647 12.7247L6.23059 12.7435H5.36471L4.95059 12.687L4.70588 12.6306L4.59294 12.5364L4.48 11.9906L4.40471 11.9341L3.84 11.727L3.40706 11.52L3.23765 11.4447L3.12471 11.4635L2.76706 11.727L2.57882 11.7459L2.39059 11.6329L2.18353 11.4635L1.92 11.2376L1.44941 10.767L1.28 10.56L1.09176 10.3153L1.01647 10.1835L0.997647 10.0706L1.05412 9.91997L1.28 9.61879L1.31765 9.50585L1.07294 8.97879L0.903529 8.52703L0.809412 8.28232L0.677647 8.22585L0.225882 8.13173L0.131765 8.03761L0.0752941 7.83056L0.0188235 7.34114L0 6.92703L0.0188235 6.9082Z" fill="#01ADD8"/>
<path d="M4.51738 0H7.11503L7.13385 3.70824L7.1715 3.87765L7.20914 3.95294L7.34091 3.99059H7.45385L7.56679 3.91529L7.60444 3.82118L7.66091 3.29412L7.75503 2.10824L7.84914 0.96L7.86797 0.771765L7.94326 0.790588L8.33856 1.01647L8.65856 1.24235L8.92209 1.44941L9.16679 1.67529L9.37385 1.88235L9.54326 2.08941L9.75032 2.37176L9.95738 2.71059L10.108 2.99294L10.2586 3.35059L10.3903 3.74588L10.5033 4.23529L10.5786 4.81882V5.28941L10.5597 5.40235L10.7668 5.45882L11.5574 5.70353L11.6139 5.72235V6.45647L11.595 6.47529L0.0185547 6.45647V5.72235L0.357378 5.60941L0.978555 5.42118L1.05385 5.38353V4.85647L1.12914 4.23529L1.22326 3.80235L1.39267 3.29412L1.59973 2.84235L1.80679 2.48471L1.99503 2.22118L2.20208 1.95765L2.42797 1.71294L2.65385 1.48706L2.86091 1.31765L3.08679 1.14824L3.36914 0.96L3.72679 0.771765H3.76444L3.95267 3.03059L4.00914 3.65176L4.06561 3.91529L4.12208 3.97177L4.17856 3.99059H4.31032L4.42326 3.93412L4.47973 3.84L4.49856 0.0188235L4.51738 0Z" fill="#01ADD8"/>
</svg>
