<svg width="10" height="12" viewBox="0 0 10 12" fill="none" xmlns="http://www.w3.org/2000/svg">
<g clip-path="url(#clip0_507_3031)">
<path d="M0.207996 12C0.207996 12 0.0934128 12 0.0413294 11.8034C-0.0315872 11.4207 -0.0107539 10.9345 0.176746 10.8103C0.520496 10.5724 6.29133 6.36207 6.54133 6.18621C6.59341 6.14483 6.62466 6.08276 6.62466 6.02069C6.62466 5.95862 6.59341 5.89655 6.54133 5.85517L0.166329 1.17931C0.166329 1.17931 -0.0211706 1.01379 -0.000337243 0.517241C0.0100794 0.206897 0.103829 0 0.239246 0C0.280913 0 0.332996 0.0206897 0.385079 0.0517241C0.718413 0.27931 7.29133 5.11034 7.35383 5.16207C7.40591 5.1931 7.8955 5.46207 7.88508 6.03103C7.85383 6.48621 7.61425 6.67241 7.40591 6.82759L0.499663 11.8862C0.499663 11.8862 0.312163 12 0.207996 12Z" fill="#01ADD8"/>
<path d="M0.28125 2.31738L1.375 3.22773L1.35417 8.77255L0.28125 9.67256V2.31738Z" fill="#01ADD8"/>
<path d="M4.60384 10.1691L5.80176 9.27942H7.01009C7.09342 9.27942 8.94759 9.20701 8.95801 8.04839C8.95801 7.07597 8.95801 3.77597 8.95801 3.77597C8.85384 3.36218 8.61426 3.08287 8.28092 2.93804C7.89551 2.78287 7.66634 2.73115 6.98926 2.71046C6.77051 2.71046 6.53092 2.71046 6.32259 2.71046C6.02051 2.71046 5.76009 2.71046 5.63509 2.71046L4.42676 1.8208H6.99967C6.99967 1.8208 7.07259 1.8208 7.17676 1.8208C7.58301 1.8208 8.60384 1.88287 9.39551 2.46218C9.48926 2.54494 10.0101 2.98977 9.99967 3.66218C9.99967 4.36563 9.99967 8.13115 9.99967 8.13115C9.99967 8.13115 9.96842 8.98977 9.40592 9.4139C8.81217 9.85873 7.76009 10.1691 6.85384 10.1691H4.60384Z" fill="#01ADD8"/>
</g>
<defs>
<clipPath id="clip0_507_3031">
<rect width="10" height="12" fill="white"/>
</clipPath>
</defs>
</svg>
