<svg width="11" height="14" viewBox="0 0 11 14" fill="none" xmlns="http://www.w3.org/2000/svg">
<path d="M5 13.18C4.33 13.18 3.69 12.93 3.22 12.47L0.32 9.71C0.11 9.51 0 9.25 0 8.96C0 8.67 0.11 8.41 0.32 8.21C0.53 8.01 0.8 7.9 1.1 7.9C1.4 7.9 1.67 8.01 1.88 8.21L2.82 9.11V5.61H2.19C1.35 5.61 0.66 4.95 0.66 4.15V1.46C0.66 0.65 1.35 0 2.19 0H8.65C9.49 0 10.18 0.66 10.18 1.46V4.16C10.18 4.97 9.49 5.62 8.65 5.62H5.02V6.15C5.11 6.13 5.19 6.12 5.29 6.12C5.68 6.12 6.04 6.32 6.24 6.64C6.37 6.59 6.51 6.56 6.66 6.56C7.17 6.56 7.61 6.9 7.73 7.36C7.82 7.33 7.92 7.32 8.03 7.32C8.64 7.32 9.13 7.79 9.13 8.37V10.76C9.13 12.09 8 13.17 6.6 13.17H5.01L5 13.18ZM1.1 8.72C1.03 8.72 0.96 8.75 0.91 8.79C0.86 8.84 0.83 8.9 0.83 8.96C0.83 9.02 0.86 9.09 0.91 9.13L3.8 11.89C4.12 12.19 4.54 12.36 5 12.36H6.59C7.52 12.36 8.28 11.64 8.28 10.75V8.36C8.28 8.22 8.16 8.11 8.02 8.11C7.88 8.11 7.76 8.22 7.76 8.36V9.39C7.76 9.61 7.57 9.79 7.34 9.79C7.11 9.79 6.92 9.61 6.92 9.39V7.6C6.92 7.46 6.8 7.35 6.66 7.35C6.52 7.35 6.4 7.46 6.4 7.6V9.39C6.4 9.61 6.21 9.79 5.98 9.79C5.75 9.79 5.56 9.61 5.56 9.39V7.16C5.56 7.02 5.44 6.91 5.3 6.91C5.16 6.91 5.04 7.02 5.04 7.16V9.39C5.04 9.61 4.85 9.79 4.62 9.79C4.39 9.79 4.2 9.61 4.2 9.39V4.28C4.2 4.14 4.08 4.03 3.94 4.03C3.8 4.03 3.68 4.14 3.68 4.28V9.76C3.68 9.98 3.55 10.17 3.34 10.25C3.27 10.28 3.2 10.29 3.13 10.29C2.98 10.29 2.84 10.24 2.74 10.13L1.32 8.78C1.32 8.78 1.2 8.71 1.13 8.71L1.1 8.72ZM3.92 3.23C4.53 3.23 5.02 3.7 5.02 4.28V4.81H8.65C9.03 4.81 9.34 4.51 9.34 4.15V1.46C9.34 1.1 9.03 0.81 8.65 0.81H2.19C1.81 0.81 1.5 1.1 1.5 1.46V4.16C1.5 4.52 1.81 4.81 2.19 4.81H2.81V4.29C2.81 3.71 3.3 3.24 3.91 3.24L3.92 3.23Z" fill="#01ADD8"/>
<path d="M5.00008 13.0901C4.35008 13.0901 3.73008 12.8501 3.27008 12.4101L0.380078 9.65008C0.190078 9.47008 0.0800781 9.22008 0.0800781 8.96008C0.0800781 8.70008 0.190078 8.46008 0.380078 8.27008C0.570078 8.08008 0.830078 7.99008 1.10008 7.99008C1.37008 7.99008 1.63008 8.09008 1.82008 8.27008L2.90008 9.31008V5.52008H2.19008C1.39008 5.52008 0.750078 4.90008 0.750078 4.14008V1.46008C0.750078 0.700078 1.40008 0.0800781 2.19008 0.0800781H8.65008C9.44008 0.0800781 10.0901 0.700078 10.0901 1.46008V4.16008C10.0901 4.92008 9.44008 5.54008 8.65008 5.54008H4.93008V6.27008C5.04008 6.23008 5.16008 6.21008 5.28008 6.21008C5.67008 6.21008 6.02008 6.42008 6.19008 6.75008C6.33008 6.68008 6.48008 6.65008 6.64008 6.65008C7.14008 6.65008 7.57008 7.01008 7.65008 7.48008C7.76008 7.44008 7.88008 7.41008 8.01008 7.41008C8.57008 7.41008 9.03008 7.85008 9.03008 8.38008V10.7701C9.03008 12.0501 7.93008 13.1001 6.59008 13.1001H5.00008V13.0901ZM1.10008 8.64008C1.01008 8.64008 0.920078 8.67008 0.850078 8.74008C0.780078 8.80008 0.750078 8.89008 0.750078 8.97008C0.750078 9.05008 0.790078 9.14008 0.850078 9.20008L3.74008 11.9601C4.07008 12.2801 4.52008 12.4601 4.99008 12.4601H6.58008C7.56008 12.4601 8.35008 11.7001 8.35008 10.7701V8.38008C8.35008 8.20008 8.19008 8.05008 8.00008 8.05008C7.81008 8.05008 7.65008 8.20008 7.65008 8.38008V9.41008C7.65008 9.59008 7.50008 9.73008 7.32008 9.73008C7.14008 9.73008 6.99008 9.59008 6.99008 9.41008V7.62008C6.99008 7.44008 6.83008 7.29008 6.64008 7.29008C6.45008 7.29008 6.29008 7.44008 6.29008 7.62008V9.41008C6.29008 9.59008 6.14008 9.73008 5.96008 9.73008C5.78008 9.73008 5.63008 9.59008 5.63008 9.41008V7.18008C5.63008 7.00008 5.47008 6.85008 5.28008 6.85008C5.09008 6.85008 4.93008 7.00008 4.93008 7.18008V9.41008C4.93008 9.59008 4.78008 9.73008 4.60008 9.73008C4.42008 9.73008 4.27008 9.59008 4.27008 9.41008V4.30008C4.27008 4.12008 4.11008 3.97008 3.92008 3.97008C3.73008 3.97008 3.57008 4.12008 3.57008 4.30008V9.78008C3.57008 9.96008 3.46008 10.1201 3.28008 10.1901C3.22008 10.2101 3.16008 10.2201 3.10008 10.2201C2.98008 10.2201 2.86008 10.1701 2.77008 10.0901L1.35008 8.74008C1.28008 8.68008 1.20008 8.64008 1.10008 8.64008ZM3.92008 3.32008C4.48008 3.32008 4.94008 3.76008 4.94008 4.29008V4.90008H8.66008C9.09008 4.90008 9.43008 4.57008 9.43008 4.16008V1.46008C9.43008 1.05008 9.08008 0.720078 8.66008 0.720078H2.19008C1.76008 0.720078 1.42008 1.05008 1.42008 1.46008V4.16008C1.42008 4.57008 1.77008 4.90008 2.19008 4.90008H2.90008V4.29008C2.90008 3.76008 3.35008 3.32008 3.91008 3.32008H3.92008Z" fill="#01ADD8"/>
<path d="M4.99977 13.17C4.32977 13.17 3.68977 12.92 3.21977 12.46L0.329766 9.71C0.119766 9.51 0.00976562 9.25 0.00976562 8.96C0.00976562 8.67 0.119766 8.41 0.329766 8.21C0.539766 8.01 0.809766 7.9 1.10977 7.9C1.40977 7.9 1.67977 8.01 1.87977 8.21L2.81977 9.11V5.6H2.18977C1.34977 5.6 0.669766 4.95 0.669766 4.14V1.46C0.669766 0.66 1.34977 0 2.18977 0H8.64977C9.48977 0 10.1698 0.65 10.1698 1.46V4.16C10.1698 4.96 9.48977 5.62 8.64977 5.62H5.00977V6.15C5.09977 6.13 5.18977 6.12 5.27977 6.12C5.66977 6.12 6.02977 6.32 6.22977 6.64C6.35977 6.59 6.49977 6.56 6.64977 6.56C7.14977 6.56 7.59977 6.9 7.71977 7.36C7.81977 7.33 7.91977 7.32 8.01977 7.32C8.62977 7.32 9.11977 7.79 9.11977 8.37V10.76C9.11977 12.09 7.98977 13.17 6.59977 13.17H5.00977H4.99977ZM1.09977 8.72C1.02977 8.72 0.959766 8.75 0.909766 8.8C0.859766 8.85 0.829766 8.91 0.829766 8.97C0.829766 9.03 0.859766 9.1 0.909766 9.14L3.79977 11.9C4.11977 12.2 4.53977 12.37 4.99977 12.37H6.58977C7.51977 12.37 8.27977 11.65 8.27977 10.76V8.37C8.27977 8.23 8.15977 8.12 8.00977 8.12C7.85977 8.12 7.73977 8.23 7.73977 8.37V9.4C7.73977 9.62 7.54977 9.8 7.31977 9.8C7.08977 9.8 6.89977 9.62 6.89977 9.4V7.61C6.89977 7.47 6.77977 7.36 6.62977 7.36C6.47977 7.36 6.35977 7.47 6.35977 7.61V9.4C6.35977 9.62 6.16977 9.8 5.93977 9.8C5.70977 9.8 5.51977 9.62 5.51977 9.4V7.17C5.51977 7.03 5.39977 6.92 5.24977 6.92C5.09977 6.92 4.97977 7.03 4.97977 7.17V9.4C4.97977 9.62 4.78977 9.8 4.55977 9.8C4.32977 9.8 4.13977 9.62 4.13977 9.4V4.29C4.13977 4.15 4.01977 4.04 3.86977 4.04C3.71977 4.04 3.59977 4.15 3.59977 4.29V9.77C3.59977 9.99 3.46977 10.18 3.25977 10.26C3.18977 10.29 3.11977 10.3 3.04977 10.3C2.89977 10.3 2.76977 10.25 2.65977 10.15L1.23977 8.8C1.18977 8.75 1.11977 8.72 1.04977 8.72H1.09977ZM8.64977 4.81C9.02977 4.81 9.33977 4.52 9.33977 4.15V1.46C9.33977 1.1 9.02977 0.8 8.64977 0.8H2.18977C1.80977 0.8 1.49977 1.09 1.49977 1.46V4.16C1.49977 4.52 1.80977 4.82 2.18977 4.82H2.81977V4.29C2.81977 3.71 3.30977 3.24 3.91977 3.24C4.52977 3.24 5.01977 3.71 5.01977 4.29V4.82H8.65977L8.64977 4.81Z" fill="#01ADD8"/>
<path d="M8.64984 0.0898438H2.18984C1.39984 0.0898438 0.749844 0.699844 0.749844 1.45984V4.15984C0.749844 4.91984 1.39984 5.52984 2.18984 5.52984H2.89984V9.31984L1.81984 8.28984C1.41984 7.90984 0.779844 7.90984 0.389844 8.28984C-0.0101562 8.66984 -0.0101562 9.27984 0.389844 9.65984L3.27984 12.4198C3.73984 12.8598 4.34984 13.0998 4.99984 13.0998H6.58984C7.92984 13.0998 9.02984 12.0598 9.02984 10.7698V8.37984C9.02984 7.84984 8.57984 7.40984 8.01984 7.40984C7.88984 7.40984 7.76984 7.42984 7.65984 7.46984C7.58984 6.99984 7.16984 6.64984 6.65984 6.64984C6.49984 6.64984 6.33984 6.68984 6.20984 6.74984C6.03984 6.42984 5.69984 6.20984 5.29984 6.20984C5.17984 6.20984 5.05984 6.22984 4.94984 6.26984V5.53984H8.66984C9.45984 5.53984 10.1098 4.91984 10.1098 4.16984V1.45984C10.1098 0.699844 9.45984 0.0898438 8.66984 0.0898438H8.64984ZM5.27984 6.82984C5.46984 6.82984 5.62984 6.97984 5.62984 7.15984V9.38984C5.62984 9.55984 5.77984 9.70984 5.95984 9.70984C6.13984 9.70984 6.28984 9.56984 6.28984 9.38984V7.59984C6.28984 7.41984 6.44984 7.26984 6.63984 7.26984C6.82984 7.26984 6.98984 7.41984 6.98984 7.59984V9.38984C6.98984 9.55984 7.13984 9.70984 7.31984 9.70984C7.49984 9.70984 7.64984 9.56984 7.64984 9.38984V8.35984C7.64984 8.17984 7.80984 8.02984 7.99984 8.02984C8.18984 8.02984 8.34984 8.17984 8.34984 8.35984V10.7498C8.34984 11.6798 7.54984 12.4398 6.56984 12.4398H4.97984C4.50984 12.4398 4.05984 12.2598 3.71984 11.9398L0.829844 9.17984C0.689844 9.04984 0.689844 8.83984 0.829844 8.70984C0.899844 8.63984 0.989844 8.60984 1.07984 8.60984C1.16984 8.60984 1.25984 8.63984 1.32984 8.70984L2.74984 10.0598C2.87984 10.1898 3.07984 10.2298 3.25984 10.1598C3.42984 10.0898 3.54984 9.92984 3.54984 9.74984V4.26984C3.54984 4.08984 3.70984 3.93984 3.89984 3.93984C4.08984 3.93984 4.24984 4.08984 4.24984 4.26984V5.19984V9.37984C4.24984 9.54984 4.39984 9.69984 4.57984 9.69984C4.75984 9.69984 4.90984 9.55984 4.90984 9.37984V7.14984C4.90984 6.96984 5.06984 6.81984 5.25984 6.81984L5.27984 6.82984ZM9.42984 4.15984C9.42984 4.56984 9.07984 4.89984 8.64984 4.89984H4.92984V4.28984C4.92984 3.75984 4.47984 3.31984 3.91984 3.31984C3.35984 3.31984 2.90984 3.74984 2.90984 4.28984V4.89984H2.19984C1.76984 4.89984 1.41984 4.56984 1.41984 4.15984V1.45984C1.41984 1.04984 1.76984 0.719844 2.19984 0.719844H8.65984C9.08984 0.719844 9.43984 1.04984 9.43984 1.45984V4.15984H9.42984Z" fill="#01ADD8"/>
<path d="M6.38016 4.03977C6.27016 4.03977 6.16016 3.99977 6.09016 3.91977L5.28016 3.14977C5.20016 3.06977 5.16016 2.96977 5.16016 2.85977C5.16016 2.74977 5.20016 2.64977 5.28016 2.56977C5.36016 2.48977 5.46016 2.44977 5.57016 2.44977C5.68016 2.44977 5.79016 2.48977 5.86016 2.56977L6.38016 3.05977L7.87016 1.62977C7.95016 1.54977 8.05016 1.50977 8.16016 1.50977C8.27016 1.50977 8.38016 1.54977 8.45016 1.62977C8.53016 1.70977 8.57016 1.80977 8.57016 1.91977C8.57016 2.02977 8.53016 2.12977 8.45016 2.20977L6.66016 3.91977C6.58016 3.99977 6.48016 4.03977 6.37016 4.03977H6.38016Z" fill="#01ADD8"/>
<path d="M6.38047 3.94986C6.29047 3.94986 6.21047 3.91986 6.14047 3.85986L5.33047 3.08986C5.27047 3.02986 5.23047 2.94986 5.23047 2.85986C5.23047 2.77986 5.26047 2.68986 5.33047 2.62986C5.39047 2.56986 5.48047 2.53986 5.57047 2.53986C5.66047 2.53986 5.74047 2.56986 5.81047 2.62986L6.38047 3.17986L7.93047 1.69986C7.99047 1.63986 8.08047 1.60986 8.17047 1.60986C8.26047 1.60986 8.34047 1.63986 8.41047 1.69986C8.47047 1.75986 8.51047 1.83986 8.51047 1.92986C8.51047 2.01986 8.47047 2.09986 8.41047 2.15986L6.62047 3.86986C6.56047 3.92986 6.47047 3.95986 6.38047 3.95986V3.94986Z" fill="#01ADD8"/>
<path d="M6.38016 4.04002C6.27016 4.04002 6.17016 4.00002 6.09016 3.92002L5.28016 3.15002C5.20016 3.07002 5.16016 2.97002 5.16016 2.87002C5.16016 2.77002 5.20016 2.66002 5.28016 2.58002C5.36016 2.51002 5.46016 2.46002 5.57016 2.46002C5.68016 2.46002 5.78016 2.50002 5.86016 2.58002L6.38016 3.07002L7.88016 1.64002C7.96016 1.57002 8.06016 1.52002 8.17016 1.52002C8.28016 1.52002 8.38016 1.56002 8.46016 1.64002C8.54016 1.72002 8.58016 1.82002 8.58016 1.93002C8.58016 2.04002 8.54016 2.14002 8.46016 2.21002L6.67016 3.92002C6.59016 4.00002 6.49016 4.04002 6.38016 4.04002Z" fill="#01ADD8"/>
<path d="M7.93969 1.7001L6.37969 3.1801L5.80969 2.6301C5.67969 2.5101 5.46969 2.5101 5.33969 2.6301C5.20969 2.7501 5.20969 2.9501 5.33969 3.0801L6.14969 3.8501C6.20969 3.9101 6.29969 3.9401 6.37969 3.9401C6.45969 3.9401 6.54969 3.9101 6.60969 3.8501L8.39969 2.1401C8.52969 2.0201 8.52969 1.8201 8.39969 1.6901C8.26969 1.5701 8.05969 1.5701 7.92969 1.6901L7.93969 1.7001Z" fill="#01ADD8"/>
</svg>
